<svg width="180" height="52" viewBox="0 0 180 52" fill="none" xmlns="http://www.w3.org/2000/svg">
<rect width="144" height="41.6" rx="8" transform="matrix(1.25 0 0 -1.25 0 52)" fill="#0B0F19"/>
<path d="M66.5046 14.9593C66.5046 15.9107 66.2128 16.6727 65.6381 17.2409C64.9773 17.9146 64.1166 18.2535 63.0619 18.2535C62.0539 18.2535 61.1933 17.9089 60.4873 17.2295C59.7798 16.5402 59.4268 15.6942 59.4268 14.6816C59.4268 13.669 59.7798 12.823 60.4873 12.1393C61.1933 11.4543 62.0539 11.1096 63.0619 11.1096C63.5637 11.1096 64.0422 11.2107 64.4988 11.3987C64.9539 11.5882 65.3244 11.8445 65.5928 12.1607L64.9831 12.7617C64.5148 12.2219 63.8774 11.9556 63.0619 11.9556C62.3267 11.9556 61.6893 12.2063 61.1481 12.7119C60.6127 13.2189 60.3443 13.8755 60.3443 14.6816C60.3443 15.4877 60.6127 16.15 61.1481 16.657C61.6893 17.1569 62.3267 17.4132 63.0619 17.4132C63.8424 17.4132 64.4988 17.1569 65.0166 16.6513C65.358 16.3166 65.552 15.8551 65.6031 15.2655H63.0619V14.4423H66.452C66.4929 14.6203 66.5046 14.7927 66.5046 14.9593Z" fill="white"/>
<path d="M71.8829 12.1051H68.6985V14.27H71.5693V15.0932H68.6985V17.258H71.8829V18.0969H67.797V11.2663H71.8829V12.1051Z" fill="white"/>
<path d="M75.6785 18.0969H74.777V12.1051H72.8238V11.2663H77.6332V12.1051H75.6785V18.0969Z" fill="white"/>
<path d="M81.1138 18.0969V11.2663H82.0138V18.0969H81.1138Z" fill="white"/>
<path d="M86.0035 18.0969H85.1093V12.1051H83.1487V11.2663H87.964V12.1051H86.0035V18.0969Z" fill="white"/>
<path d="M97.0695 17.2181C96.3795 17.9089 95.5247 18.2535 94.505 18.2535C93.4795 18.2535 92.6247 17.9089 91.9347 17.2181C91.2462 16.5288 90.9034 15.6828 90.9034 14.6816C90.9034 13.6804 91.2462 12.8344 91.9347 12.145C92.6247 11.4543 93.4795 11.1096 94.505 11.1096C95.5189 11.1096 96.3737 11.4543 97.0637 12.1507C97.758 12.8458 98.1008 13.686 98.1008 14.6816C98.1008 15.6828 97.758 16.5288 97.0695 17.2181ZM92.6014 16.6456C93.1207 17.1569 93.7523 17.4132 94.505 17.4132C95.2519 17.4132 95.8894 17.1569 96.4029 16.6456C96.9207 16.1343 97.1833 15.4777 97.1833 14.6816C97.1833 13.8854 96.9207 13.2289 96.4029 12.7176C95.8894 12.2063 95.2519 11.9499 94.505 11.9499C93.7523 11.9499 93.1207 12.2063 92.6014 12.7176C92.0835 13.2289 91.821 13.8854 91.821 14.6816C91.821 15.4777 92.0835 16.1343 92.6014 16.6456Z" fill="white"/>
<path d="M99.3655 18.0969V11.2663H100.46L103.861 16.5786H103.901L103.861 15.2655V11.2663H104.761V18.0969H103.822L100.26 12.5224H100.22L100.26 13.8413V18.0969H99.3655Z" fill="white"/>
<path d="M86.5571 26.8029C83.6482 26.8029 81.2719 29.007 81.2719 32.0479C81.2719 35.0642 83.6482 37.2914 86.5571 37.2914C89.4723 37.2914 91.8486 35.0642 91.8486 32.0479C91.8486 29.007 89.4723 26.8029 86.5571 26.8029ZM86.5571 35.2261C84.961 35.2261 83.5878 33.9144 83.5878 32.0479C83.5878 30.1568 84.961 28.8683 86.5571 28.8683C88.1533 28.8683 89.5326 30.1568 89.5326 32.0479C89.5326 33.9144 88.1533 35.2261 86.5571 35.2261ZM75.0252 26.8029C72.11 26.8029 69.7399 29.007 69.7399 32.0479C69.7399 35.0642 72.11 37.2914 75.0252 37.2914C77.9387 37.2914 80.3105 35.0642 80.3105 32.0479C80.3105 29.007 77.9387 26.8029 75.0252 26.8029ZM75.0252 35.2261C73.4275 35.2261 72.0497 33.9144 72.0497 32.0479C72.0497 30.1568 73.4275 28.8683 75.0252 28.8683C76.6213 28.8683 77.9945 30.1568 77.9945 32.0479C77.9945 33.9144 76.6213 35.2261 75.0252 35.2261ZM61.3026 28.4105V30.6392H66.6483C66.4919 31.8846 66.0739 32.8001 65.433 33.4382C64.6527 34.2088 63.4375 35.0642 61.3026 35.0642C58.0128 35.0642 55.4367 32.4209 55.4367 29.1457C55.4367 25.8705 58.0128 23.2272 61.3026 23.2272C63.0814 23.2272 64.3756 23.9192 65.3308 24.8162L66.9084 23.2457C65.5723 21.9756 63.7951 21 61.3026 21C56.7914 21 53 24.6544 53 29.1457C53 33.637 56.7914 37.2914 61.3026 37.2914C63.7409 37.2914 65.5723 36.4961 67.0121 35.0041C68.4874 33.5353 68.9472 31.4699 68.9472 29.8023C68.9472 29.2844 68.9039 28.8081 68.8265 28.4105H61.3026ZM117.416 30.1383C116.981 28.9654 115.639 26.8029 112.905 26.8029C110.195 26.8029 107.94 28.9284 107.94 32.0479C107.94 34.9856 110.172 37.2914 113.165 37.2914C115.584 37.2914 116.981 35.8225 117.555 34.9671L115.759 33.7757C115.16 34.6481 114.344 35.2261 113.165 35.2261C111.993 35.2261 111.152 34.6912 110.613 33.637L117.659 30.7348L117.416 30.1383ZM110.233 31.8846C110.172 29.8624 111.81 28.8266 112.984 28.8266C113.903 28.8266 114.683 29.2844 114.944 29.9395L110.233 31.8846ZM104.506 36.9723H106.822V21.5595H104.506V36.9723ZM100.713 27.9712H100.636C100.116 27.3578 99.1233 26.8029 97.8662 26.8029C95.2282 26.8029 92.8162 29.1087 92.8162 32.0649C92.8162 35.0041 95.2282 37.2914 97.8662 37.2914C99.1233 37.2914 100.116 36.7319 100.636 36.1H100.713V36.8521C100.713 38.8573 99.6373 39.9347 97.9018 39.9347C96.4868 39.9347 95.609 38.9174 95.2468 38.062L93.2327 38.8989C93.8132 40.2892 95.3505 42 97.9018 42C100.617 42 102.908 40.4094 102.908 36.5392V27.122H100.713V27.9712ZM98.0644 35.2261C96.4682 35.2261 95.1322 33.8959 95.1322 32.0649C95.1322 30.2169 96.4682 28.8683 98.0644 28.8683C99.6373 28.8683 100.877 30.2169 100.877 32.0649C100.877 33.8959 99.6373 35.2261 98.0644 35.2261ZM128.259 21.5595H122.72V36.9723H125.03V31.1324H128.259C130.824 31.1324 133.34 29.2844 133.34 26.3452C133.34 23.4075 130.818 21.5595 128.259 21.5595ZM128.319 28.9885H125.03V23.7034H128.319C130.044 23.7034 131.029 25.1291 131.029 26.3452C131.029 27.5381 130.044 28.9885 128.319 28.9885ZM142.598 26.7737C140.929 26.7737 139.193 27.5073 138.48 29.1334L140.529 29.9888C140.971 29.1334 141.782 28.8559 142.64 28.8559C143.838 28.8559 145.053 29.5726 145.072 30.838V30.9999C144.654 30.7594 143.759 30.4034 142.658 30.4034C140.45 30.4034 138.201 31.6133 138.201 33.8713C138.201 35.9366 140.009 37.2667 142.042 37.2667C143.596 37.2667 144.454 36.5685 144.993 35.7563H145.072V36.9477H147.302V31.0353C147.302 28.3026 145.253 26.7737 142.598 26.7737ZM142.319 35.2199C141.564 35.2199 140.511 34.8469 140.511 33.9144C140.511 32.7215 141.824 32.2637 142.96 32.2637C143.977 32.2637 144.454 32.4872 145.072 32.7816C144.89 34.2088 143.657 35.2199 142.319 35.2199ZM155.43 27.1112L152.775 33.7927H152.696L149.951 27.1112H147.46L151.585 36.4483L149.231 41.644H151.645L158 27.1112H155.43ZM134.609 36.9723H136.925V21.5595H134.609V36.9723Z" fill="white"/>
<path d="M22.5412 11.8776C22.1984 12.2279 22 12.7734 22 13.4798V38.6773C22 39.3837 22.1984 39.9292 22.5412 40.2795L22.6258 40.3564L37.0877 26.2424V25.9091L22.6258 11.795L22.5412 11.8776Z" fill="url(#paint0_linear_4632_11280)"/>
<path d="M41.9022 30.9492L37.0869 26.2421V25.9089L41.908 21.2018L42.016 21.263L47.7255 24.4348C49.3549 25.3349 49.3549 26.8161 47.7255 27.7219L42.016 30.888L41.9022 30.9492Z" fill="url(#paint1_linear_4632_11280)"/>
<path d="M42.0157 30.888L37.0866 26.0756L22.54 40.2794C23.0812 40.8348 23.9638 40.9018 24.9674 40.3463L42.0157 30.888Z" fill="url(#paint2_linear_4632_11280)"/>
<path d="M42.0157 21.2632L24.9674 11.8049C23.9638 11.2552 23.0812 11.3221 22.54 11.8776L37.0866 26.0757L42.0157 21.2632Z" fill="url(#paint3_linear_4632_11280)"/>
<defs>
<linearGradient id="paint0_linear_4632_11280" x1="35.8037" y1="38.9397" x2="16.6876" y2="19.3604" gradientUnits="userSpaceOnUse">
<stop stop-color="#00A0FF"/>
<stop offset="0.0066" stop-color="#00A1FF"/>
<stop offset="0.2601" stop-color="#00BEFF"/>
<stop offset="0.5122" stop-color="#00D2FF"/>
<stop offset="0.7604" stop-color="#00DFFF"/>
<stop offset="1" stop-color="#00E3FF"/>
</linearGradient>
<linearGradient id="paint1_linear_4632_11280" x1="49.8473" y1="26.0739" x2="21.6097" y2="26.0739" gradientUnits="userSpaceOnUse">
<stop stop-color="#FFE000"/>
<stop offset="0.4087" stop-color="#FFBD00"/>
<stop offset="0.7754" stop-color="#FFA500"/>
<stop offset="1" stop-color="#FF9C00"/>
</linearGradient>
<linearGradient id="paint2_linear_4632_11280" x1="39.3354" y1="23.4594" x2="13.4124" y2="-3.09167" gradientUnits="userSpaceOnUse">
<stop stop-color="#FF3A44"/>
<stop offset="1" stop-color="#C31162"/>
</linearGradient>
<linearGradient id="paint3_linear_4632_11280" x1="18.8784" y1="48.6626" x2="30.4541" y2="36.8064" gradientUnits="userSpaceOnUse">
<stop stop-color="#32A071"/>
<stop offset="0.0685" stop-color="#2DA771"/>
<stop offset="0.4762" stop-color="#15CF74"/>
<stop offset="0.8009" stop-color="#06E775"/>
<stop offset="1" stop-color="#00F076"/>
</linearGradient>
</defs>
</svg>
