<svg width="136" height="31" viewBox="0 0 136 31" fill="none" xmlns="http://www.w3.org/2000/svg">
<path d="M64.5571 15.8029C61.6482 15.8029 59.2719 18.007 59.2719 21.0479C59.2719 24.0642 61.6482 26.2914 64.5571 26.2914C67.4723 26.2914 69.8486 24.0642 69.8486 21.0479C69.8486 18.007 67.4723 15.8029 64.5571 15.8029ZM64.5571 24.2261C62.961 24.2261 61.5878 22.9144 61.5878 21.0479C61.5878 19.1568 62.961 17.8683 64.5571 17.8683C66.1533 17.8683 67.5326 19.1568 67.5326 21.0479C67.5326 22.9144 66.1533 24.2261 64.5571 24.2261V24.2261ZM53.0252 15.8029C50.11 15.8029 47.7399 18.007 47.7399 21.0479C47.7399 24.0642 50.11 26.2914 53.0252 26.2914C55.9387 26.2914 58.3105 24.0642 58.3105 21.0479C58.3105 18.007 55.9387 15.8029 53.0252 15.8029ZM53.0252 24.2261C51.4275 24.2261 50.0497 22.9144 50.0497 21.0479C50.0497 19.1568 51.4275 17.8683 53.0252 17.8683C54.6213 17.8683 55.9945 19.1568 55.9945 21.0479C55.9945 22.9144 54.6213 24.2261 53.0252 24.2261ZM39.3026 17.4105V19.6392H44.6483C44.4919 20.8846 44.0739 21.8001 43.433 22.4382C42.6527 23.2088 41.4375 24.0642 39.3026 24.0642C36.0128 24.0642 33.4367 21.4209 33.4367 18.1457C33.4367 14.8705 36.0128 12.2272 39.3026 12.2272C41.0814 12.2272 42.3756 12.9192 43.3308 13.8162L44.9084 12.2457C43.5723 10.9756 41.7951 10 39.3026 10C34.7914 10 31 13.6544 31 18.1457C31 22.637 34.7914 26.2914 39.3026 26.2914C41.7409 26.2914 43.5723 25.4961 45.0121 24.0041C46.4874 22.5353 46.9472 20.4699 46.9472 18.8023C46.9472 18.2844 46.9039 17.8081 46.8265 17.4105H39.3026ZM95.4159 19.1383C94.9809 17.9654 93.6387 15.8029 90.9047 15.8029C88.1955 15.8029 85.9398 17.9284 85.9398 21.0479C85.9398 23.9856 88.1722 26.2914 91.1648 26.2914C93.5845 26.2914 94.9809 24.8225 95.5552 23.9671L93.7594 22.7757C93.1603 23.6481 92.3444 24.2261 91.1648 24.2261C89.9928 24.2261 89.1522 23.6912 88.6135 22.637L95.659 19.7348L95.4159 19.1383V19.1383ZM88.2326 20.8846C88.1722 18.8624 89.8102 17.8266 90.9836 17.8266C91.9032 17.8266 92.6835 18.2844 92.9436 18.9395L88.2326 20.8846V20.8846ZM82.5061 25.9723H84.8221V10.5595H82.5061V25.9723ZM78.7132 16.9712H78.6358C78.1156 16.3578 77.1233 15.8029 75.8662 15.8029C73.2282 15.8029 70.8162 18.1087 70.8162 21.0649C70.8162 24.0041 73.2282 26.2914 75.8662 26.2914C77.1233 26.2914 78.1156 25.7319 78.6358 25.1H78.7132V25.8521C78.7132 27.8573 77.6373 28.9347 75.9018 28.9347C74.4868 28.9347 73.609 27.9174 73.2468 27.062L71.2327 27.8989C71.8132 29.2892 73.3505 31 75.9018 31C78.6172 31 80.9084 29.4094 80.9084 25.5392V16.122H78.7132V16.9712V16.9712ZM76.0644 24.2261C74.4682 24.2261 73.1322 22.8959 73.1322 21.0649C73.1322 19.2169 74.4682 17.8683 76.0644 17.8683C77.6373 17.8683 78.8773 19.2169 78.8773 21.0649C78.8773 22.8959 77.6373 24.2261 76.0644 24.2261V24.2261ZM106.259 10.5595H100.72V25.9723H103.03V20.1324H106.259C108.824 20.1324 111.34 18.2844 111.34 15.3452C111.34 12.4075 108.818 10.5595 106.259 10.5595V10.5595ZM106.319 17.9885H103.03V12.7034H106.319C108.044 12.7034 109.029 14.1291 109.029 15.3452C109.029 16.5381 108.044 17.9885 106.319 17.9885ZM120.598 15.7737C118.929 15.7737 117.193 16.5073 116.48 18.1334L118.529 18.9888C118.971 18.1334 119.782 17.8559 120.64 17.8559C121.838 17.8559 123.053 18.5726 123.072 19.838V19.9999C122.654 19.7594 121.759 19.4034 120.658 19.4034C118.45 19.4034 116.201 20.6133 116.201 22.8713C116.201 24.9366 118.009 26.2667 120.042 26.2667C121.596 26.2667 122.454 25.5685 122.993 24.7563H123.072V25.9477H125.302V20.0353C125.302 17.3026 123.253 15.7737 120.598 15.7737ZM120.319 24.2199C119.564 24.2199 118.511 23.8469 118.511 22.9144C118.511 21.7215 119.824 21.2637 120.96 21.2637C121.977 21.2637 122.454 21.4872 123.072 21.7816C122.89 23.2088 121.657 24.2199 120.319 24.2199V24.2199ZM133.43 16.1112L130.775 22.7927H130.696L127.951 16.1112H125.46L129.585 25.4483L127.231 30.644H129.645L136 16.1112H133.43V16.1112ZM112.609 25.9723H114.925V10.5595H112.609V25.9723Z" fill="white"/>
<path d="M0.541191 0.877589C0.198387 1.22795 0 1.77343 0 2.47984V27.6773C0 28.3837 0.198387 28.9292 0.541191 29.2795L0.625798 29.3564L15.0877 15.2424V14.9091L0.625798 0.794984L0.541191 0.877589Z" fill="url(#paint0_linear_4632_11283)"/>
<path d="M19.9022 19.9492L15.0869 15.2421V14.9089L19.908 10.2018L20.016 10.263L25.7255 13.4348C27.3549 14.3349 27.3549 15.8161 25.7255 16.7219L20.016 19.888L19.9022 19.9492Z" fill="url(#paint1_linear_4632_11283)"/>
<path d="M20.0157 19.888L15.0866 15.0756L0.540039 29.2794C1.08123 29.8348 1.96377 29.9018 2.96738 29.3463L20.0157 19.888Z" fill="url(#paint2_linear_4632_11283)"/>
<path d="M20.0157 10.2632L2.96738 0.804926C1.96377 0.255174 1.08123 0.322111 0.540039 0.87756L15.0866 15.0757L20.0157 10.2632Z" fill="url(#paint3_linear_4632_11283)"/>
<defs>
<linearGradient id="paint0_linear_4632_11283" x1="13.8037" y1="27.9397" x2="-5.3124" y2="8.3604" gradientUnits="userSpaceOnUse">
<stop stop-color="#00A0FF"/>
<stop offset="0.0066" stop-color="#00A1FF"/>
<stop offset="0.2601" stop-color="#00BEFF"/>
<stop offset="0.5122" stop-color="#00D2FF"/>
<stop offset="0.7604" stop-color="#00DFFF"/>
<stop offset="1" stop-color="#00E3FF"/>
</linearGradient>
<linearGradient id="paint1_linear_4632_11283" x1="27.8473" y1="15.0739" x2="-0.390296" y2="15.0739" gradientUnits="userSpaceOnUse">
<stop stop-color="#FFE000"/>
<stop offset="0.4087" stop-color="#FFBD00"/>
<stop offset="0.7754" stop-color="#FFA500"/>
<stop offset="1" stop-color="#FF9C00"/>
</linearGradient>
<linearGradient id="paint2_linear_4632_11283" x1="17.3354" y1="12.4594" x2="-8.5876" y2="-14.0917" gradientUnits="userSpaceOnUse">
<stop stop-color="#FF3A44"/>
<stop offset="1" stop-color="#C31162"/>
</linearGradient>
<linearGradient id="paint3_linear_4632_11283" x1="-3.12163" y1="37.6626" x2="8.45414" y2="25.8064" gradientUnits="userSpaceOnUse">
<stop stop-color="#32A071"/>
<stop offset="0.0685" stop-color="#2DA771"/>
<stop offset="0.4762" stop-color="#15CF74"/>
<stop offset="0.8009" stop-color="#06E775"/>
<stop offset="1" stop-color="#00F076"/>
</linearGradient>
</defs>
</svg>
